<?xml version="1.0" encoding="iso-8859-1"?>
<!-- Generator: Adobe Illustrator 19.0.0, SVG Export Plug-In . SVG Version: 6.00 Build 0)  -->
<svg version="1.1" id="Layer_1" xmlns="http://www.w3.org/2000/svg" xmlns:xlink="http://www.w3.org/1999/xlink" x="0px" y="0px"
	 viewBox="0 0 512 512" style="enable-background:new 0 0 512 512;" xml:space="preserve">
<g>
	<g>
		<path d="M256,0C114.611,0,0,114.611,0,256s114.611,256,256,256s256-114.611,256-256S397.389,0,256,0z M256,486.4
			C128.751,486.4,25.6,383.241,25.6,256S128.751,25.6,256,25.6S486.4,128.759,486.4,256S383.249,486.4,256,486.4z"/>
	</g>
</g>
<g>
	<g>
		<path d="M345.6,140.8H166.4c-14.14,0-25.6,11.46-25.6,25.6v179.2c0,14.14,11.46,25.6,25.6,25.6h179.2
			c14.14,0,25.6-11.46,25.6-25.6V166.4C371.2,152.26,359.74,140.8,345.6,140.8z M345.6,345.6H166.4V166.4h179.2V345.6z"/>
	</g>
</g>
<g>
</g>
<g>
</g>
<g>
</g>
<g>
</g>
<g>
</g>
<g>
</g>
<g>
</g>
<g>
</g>
<g>
</g>
<g>
</g>
<g>
</g>
<g>
</g>
<g>
</g>
<g>
</g>
<g>
</g>
</svg>
